<svg xmlns="http://www.w3.org/2000/svg" xmlns:xlink="http://www.w3.org/1999/xlink" version="1.1" x="0px" y="0px" width="192px" height="192px" viewBox="0 0 32 32" enable-background="new 0 0 32 32" xml:space="preserve"><path style="fill:white" d="M12.046,16.604L7.834,7.978h5.559V6.243H3.325c-0.479,0-0.868,0.389-0.868,0.868c0,0.479,0.388,0.867,0.868,0.867H5.54  l-4.212,8.626h-0.97c0,3.495,2.834,6.33,6.33,6.33c3.496,0,6.329-2.834,6.329-6.33H12.046z M2.775,16.604l3.912-8.011l3.912,8.011  H2.775z"></path><path style="fill:white" d="M30.672,16.604L26.46,7.978h2.215c0.479,0,0.867-0.388,0.867-0.867c0-0.479-0.388-0.868-0.867-0.868H18.607v1.734h5.558  l-4.212,8.626h-0.969c0,3.495,2.833,6.33,6.329,6.33s6.33-2.834,6.33-6.33H30.672z M21.401,16.604l3.912-8.011l3.912,8.011H21.401z"></path><polygon style="fill:white" points="17.307,4.364 14.693,4.364 14.693,25.901 11.747,25.901 11.747,27.636 20.253,27.636 20.253,25.901 17.307,25.901   "></polygon></svg>